<?xml version="1.0" encoding="UTF-8"?>
<svg id="Layer_1" data-name="Layer 1" xmlns="http://www.w3.org/2000/svg" viewBox="0 0 511.82 437.7">
  <defs>
    <style>
      .cls-1 {
        fill: #fc4848;
      }

      .cls-2 {
        fill: #010101;
      }

      .cls-3 {
        fill: #00c8ae;
      }

      .cls-4 {
        fill: #e5e5e5;
      }

      .cls-5 {
        fill: #fe8144;
      }

      .cls-6 {
        fill: #feb94a;
      }

      .cls-7 {
        fill: #fed677;
      }

      .cls-8 {
        fill: #7f7f7f;
      }

      .cls-9 {
        fill: #89e6d2;
      }

      .cls-10 {
        fill: #88e4d0;
      }

      .cls-11 {
        fill: #6d6d6d;
      }

      .cls-12 {
        fill: #2d2d2d;
      }

      .cls-13 {
        fill: #3a3a3a;
      }

      .cls-14 {
        fill: #2e2e2e;
      }
    </style>
  </defs>
  <path d="M511.82,276.19c-2.33,5.54-1.92,11.55-2.75,17.32-4.65,32.3-15.19,62.52-31.12,90.92-11.82,21.08-37.68,29.15-59.07,18.46-21.31-10.65-30.52-36.47-20.47-58.29,5.9-12.81,12.83-25.13,16.75-38.81,13.76-48.02,8.21-93.64-18.02-136.14-21.41-34.7-52.05-58.42-90.95-70.79-33.97-10.8-68.3-10.9-102.09,.57-49.08,16.66-83.48,49.36-103.29,97.35-1.53,3.7-1.73,5.01,3.06,5.76,33.52,5.25,66.99,10.88,100.46,16.46,2.6,.43,4.22-.2,6.01-2.19,17.89-19.92,45.55-26.06,69.64-15.63,24.37,10.56,39.09,35.25,36.81,61.77-2.47,28.79-26.67,53.19-54.78,55.23-31.67,2.3-58.45-16.78-65.27-46.73-.86-3.8-2.45-5.83-6.2-7.23-32.66-12.15-65.24-24.54-98.28-37.01-3.31,18.7-3.67,37.15-.84,55.67,3.02,19.76,9.58,38.28,19.23,55.75,9.09,16.45,9.58,32.82-.67,49.09-15.77,25.02-54.87,26.56-72.07,2.42-11.36-15.95-18.54-34.06-24.75-52.53-6.44-19.16-10.37-38.84-12.1-58.97-.08-.9,.33-2.08-1.06-2.44v-8c1.13-3.35,.22-6.81,.52-10.2-.31-4.93,.62-9.89-.52-14.79v-3c1.25-9,1.01-18.11,2.59-27.11,7.33-41.74,24.04-79.31,49.64-112.99,5.85-7.7,10.73-8.9,17.84-4.88,5.33,5.93,5.59,10.97,.89,17.41-3.24,4.43-6.58,8.79-9.72,13.3-2.14,3.06-2.32,4.84,1.44,6.98,10.7,6.08,21.5,12.01,31.95,18.51,3.54,2.2,5.48,1.51,7.74-1.68,9.47-13.34,20.14-25.59,32.83-36.03,4.38-3.6,9.08-6.75,13.64-10.09,2.64-1.93,3.3-3.84,1.55-6.71-6.68-10.93-12.79-22.19-19.26-33.25-1.85-3.15-3.67-3.31-6.31-1.21-1.29,1.03-2.74,1.89-4.18,2.72-6.81,3.87-11.44,3-16.63-3.11-2.57-7.1-1.31-11.31,5.52-16.28,7.68-5.59,15.93-10.32,24.25-14.88,27.48-15.08,56.85-24.46,87.85-28.56,48.52-6.41,95.23,.26,139.95,20.29,26.54,11.89,50.17,28.02,71.25,48.09,30.5,29.05,52.42,63.47,66.16,103.21,5.35,15.47,9.29,31.26,11.44,47.5,.87,6.56,.32,13.22,1.39,19.76v2c-1.14,4.88-.21,9.84-.52,14.76,.29,3.41-.61,6.87,.52,10.23v8Z"/>
  <path class="cls-13" d="M0,243.21c2.31,4.87,.46,9.98,.89,14.96-.28,.49-.58,.48-.89,.03v-14.99Z"/>
  <path class="cls-13" d="M510.94,258.17c.43-4.98-1.42-10.1,.89-14.96v14.99c-.31,.47-.61,.44-.89-.03Z"/>
  <path class="cls-14" d="M0,258.2c.3,0,.59-.01,.89-.03-.26,3.34,1.13,6.84-.89,10.03v-10Z"/>
  <path class="cls-14" d="M510.94,258.17c.3,.01,.59,.02,.89,.03v10c-2.02-3.19-.63-6.68-.89-10.03Z"/>
  <path d="M255.94,355.65c18.81,0,37.62-.02,56.43,0,10.14,.02,13.51,3.38,13.52,13.4,.01,8.82,.05,17.64-.01,26.46-.06,8.19-3.63,12.05-11.81,12.07-38.78,.09-77.57,.1-116.35,0-8.16-.02-11.71-3.9-11.76-12.12-.06-8.82-.02-17.64-.01-26.46,.01-9.99,3.39-13.34,13.57-13.36,18.81-.03,37.62,0,56.43,0Z"/>
  <path class="cls-2" d="M270.39,417.63c6.15,0,12.3-.09,18.45,.02,7.44,.14,11.91,3.89,12.01,9.86,.1,5.94-4.43,10.02-11.75,10.09-12.8,.13-25.6,.16-38.4-.05-5.92-.09-9.57-3.11-10.48-8.07-.84-4.6,1-8.1,4.97-10.48,2.23-1.34,4.76-1.34,7.24-1.36,5.98-.05,11.97-.02,17.95-.02Z"/>
  <path class="cls-2" d="M182.02,139.43c-5.6-.07-10.02-4.68-9.88-10.28,.14-5.28,4.76-9.75,10.01-9.68,5.45,.08,9.94,4.81,9.81,10.38-.12,5.45-4.48,9.65-9.94,9.58Z"/>
  <path class="cls-2" d="M329.49,139.48c-5.39-.08-9.68-4.51-9.62-9.94,.05-5.5,4.79-10.19,10.18-10.07,5.21,.12,9.77,4.86,9.69,10.05-.09,5.63-4.63,10.04-10.24,9.96Z"/>
  <path class="cls-2" d="M118.17,257.32c.01,5.42-4.24,9.79-9.67,9.93-5.51,.14-10.34-4.5-10.33-9.91,.01-5.15,4.59-9.81,9.83-9.99,5.44-.19,10.15,4.43,10.17,9.97Z"/>
  <path class="cls-2" d="M393.65,257.34c.02-5.35,4.35-9.81,9.69-9.96,5.34-.16,10.32,4.68,10.31,10.02,0,5.41-4.83,10-10.35,9.87-5.45-.14-9.67-4.48-9.65-9.93Z"/>
  <path class="cls-2" d="M221.19,437.48c-5.59,.08-10.28-4.49-10.21-9.94,.06-5.3,4.5-9.66,9.91-9.75,5.65-.09,10.17,4.34,10.13,9.93-.04,5.37-4.38,9.68-9.82,9.75Z"/>
  <path class="cls-3" d="M45.44,267.29c7,0,13.99,.09,20.99-.05,2.51-.05,3.43,.69,3.62,3.33,2,27.96,10.01,54.1,23.54,78.67,8.11,14.73,3.06,30.39-11.17,36.37-11.91,5.01-24.71,.31-31.51-11.64-10.58-18.6-18.53-38.27-23.84-59.01-3.72-14.55-5.69-29.37-6.87-44.31-.21-2.7,.63-3.46,3.24-3.41,7.33,.14,14.66,.05,21.99,.05Z"/>
  <path class="cls-1" d="M442.04,387.4c-21.16,.11-33.4-18.22-25.37-34.6,8.21-16.76,16.24-33.48,20.44-51.8,2.24-9.75,4.01-19.56,4.61-29.54,.18-3.12,.91-4.3,4.28-4.26,13.99,.18,27.98,.17,41.97,0,3.22-.04,3.81,.96,3.61,4.02-2.38,36.28-12.43,70.24-30.19,101.96-4.94,8.83-12.01,14.03-19.35,14.2Z"/>
  <path class="cls-7" d="M69.97,96.24l5.19-5.24c1.54-.83,2.91,.07,4.31,.46,3.58,1,6.67,.06,9.04-2.67,2.24-2.59,2.67-5.61,1.32-8.88-.45-1.1-1.74-2.21-.49-3.59,5.34-4.7,10.69-9.4,16.03-14.1,5.84,5.34,9.36,5.54,16.34,.94q7.64-5.03,12.26,2.98c6.14,10.64,12.2,21.32,18.47,31.88,1.36,2.29,1.44,3.55-.93,5.14-19.98,13.4-36.72,30.08-50.07,50.11-1.35,2.03-2.4,2.06-4.37,.9-12.6-7.39-25.23-14.72-37.95-21.89-2.38-1.35-2.02-2.35-.72-4.12,3.84-5.22,7.52-10.54,11.33-15.79,4.71-6.49,4.79-9.82,.24-16.12Z"/>
  <path class="cls-6" d="M245.91,46.42c0,7.16-.09,14.33,.05,21.49,.05,2.45-.53,3.39-3.21,3.58-23.8,1.73-46.57,7.54-68,18.13-2.93,1.45-3.91,.52-5.26-1.87-6.89-12.15-13.8-24.29-21-36.26-1.88-3.13-.86-3.96,1.86-5.32,29.11-14.59,59.97-22.47,92.4-24.55,3.01-.19,3.22,1.01,3.19,3.32-.08,7.16-.03,14.32-.03,21.49Z"/>
  <path class="cls-6" d="M269.05,21.75c32.4,1.83,63.22,9.85,92.37,24.35,3.26,1.62,3.48,2.73,1.68,5.74-7.08,11.84-13.96,23.81-20.7,35.86-1.57,2.81-2.86,3.13-5.71,1.73-21.15-10.37-43.58-16.17-67.05-17.89-3.02-.22-3.85-1.02-3.81-4.06,.17-14.16,.09-28.32,.06-42.47,0-2.19-.1-4.23,3.16-3.26Z"/>
  <path class="cls-5" d="M383.21,58.55c.86,.57,1.69,1.12,2.52,1.67,26.96,17.93,49.43,40.32,67.35,67.31,1.67,2.52,1.77,3.56-1.08,5.16-12.33,6.9-24.57,13.98-36.7,21.22-2.73,1.63-3.88,.95-5.47-1.41-12.96-19.29-29.05-35.51-48.35-48.47-3.05-2.05-3.6-3.65-1.59-6.99,7.13-11.81,13.88-23.85,20.82-35.78,.61-1.04,.78-2.63,2.5-2.71Z"/>
  <path class="cls-5" d="M466.6,247.29c-6.99,0-13.99-.11-20.98,.06-2.75,.07-3.66-.75-3.86-3.59-1.67-23.3-7.5-45.53-17.81-66.52-1.52-3.1-1.47-4.73,1.93-6.6,12.09-6.65,24.03-13.58,35.87-20.67,3.04-1.82,3.88-.95,5.26,1.83,14.44,29.16,22.26,60.03,24.45,92.43,.17,2.59-.56,3.13-2.88,3.11-7.33-.09-14.65-.03-21.98-.03Z"/>
  <path class="cls-9" d="M44.87,247.29c-7.16,0-14.33-.1-21.49,.05-2.69,.06-3.22-.74-3.03-3.42,2.23-32.23,10.15-62.9,24.45-91.93,1.56-3.17,2.56-3.67,5.65-1.82,11.84,7.09,23.8,13.98,35.85,20.71,2.85,1.59,3.15,2.93,1.8,5.79-2.9,6.16-5.51,12.46-7.91,18.83-.92,2.44-2.11,3.01-4.45,2.48-2.75-.63-5.55-1.13-8.35-1.5-5.59-.74-10.22,2.15-11.65,7.14-1.41,4.93,.71,9.28,5.81,11.84,1.04,.52,2.12,.94,3.21,1.36,8.5,3.3,8.44,3.29,7.05,11.98-.73,4.6-1.63,9.24-1.62,13.86,0,4.19-1.71,4.86-5.34,4.72-6.65-.26-13.32-.07-19.99-.07Z"/>
  <path class="cls-4" d="M219.28,275.25c9.5,3.59,18.55,7.23,27.74,10.43,15.07,5.25,30.78-2.58,36.66-18.02,5.5-14.42-1.25-31.62-15.06-37.36-8.05-3.34-16.9-3.41-25.36-5.08-3.04-.6-6.11-1.06-9.44-1.62,9.76-9.09,28.25-9.65,42.73-1.63,14.89,8.25,23.05,26.39,19.54,43.45-3.5,17-17.77,30.58-34.24,32.57-18.26,2.21-35.27-6.72-42.59-22.76Z"/>
  <path class="cls-8" d="M172.07,234.14c15.92,2.5,31.85,4.97,47.76,7.52,12.47,2,24.91,4.19,37.39,6.11,4.55,.7,7.34,2.98,8.11,7.47,.75,4.34-.95,7.76-4.35,10.47-2.52,2.01-5.22,1.93-8,.87-27.66-10.49-55.32-21-82.97-31.51-.02-1.86,1.05-1.33,2.06-.93Z"/>
  <path class="cls-11" d="M172.07,234.14c-.69,.31-1.37,.62-2.06,.93-1.27-.35-2.54-.7-3.81-1.04-.49-.92-.18-1.2,.78-.96,1.72,.25,3.57-.1,5.09,1.08Z"/>
  <path class="cls-12" d="M166.98,233.06c-.26,.32-.52,.64-.78,.96-.95-.26-2.58-.39-2.09-1.54,.34-.8,2.01-.34,2.87,.58Z"/>
  <path class="cls-2" d="M89.33,76.33c3.39,5.87,3.36,9.89-.11,13.68-3.49,3.82-7.71,4.11-14.07,.99-2.61-3.63-4.36-7.4-2.13-11.9,3.05-6.14,9.41-7.22,16.3-2.77Z"/>
  <path class="cls-10" d="M255.91,387.68c-15.16,0-30.32-.14-45.47,.1-3.86,.06-5.14-1.11-4.53-4.75,.13-.81,.13-1.68,0-2.49-.6-3.8,.74-5.03,4.78-5,30.15,.18,60.3,.18,90.45,0,4.04-.02,5,1.19,4.85,5-.28,7.14-.06,7.15-7.1,7.15-14.33,0-28.65,0-42.98,0Z"/>
</svg>