<?xml version="1.0" encoding="utf-8"?>
<!-- Generator: Adobe Illustrator 26.4.0, SVG Export Plug-In . SVG Version: 6.00 Build 0)  -->
<svg version="1.1" id="Layer_1" xmlns="http://www.w3.org/2000/svg" xmlns:xlink="http://www.w3.org/1999/xlink" x="0px" y="0px"
	 viewBox="0 0 612 792" style="enable-background:new 0 0 612 792;" xml:space="preserve">
<style type="text/css">
	.st0{fill:#1E1E1E;stroke:#FFFFFF;stroke-width:24;stroke-miterlimit:10;}
	.st1{fill:#FFFFFF;}
</style>
<g>
	<circle class="st0" cx="306" cy="396" r="231"/>
	<path class="st1" d="M139.47,393.4c2.13-2.94,3.92-6.2,6.43-8.76c14.68-14.9,29.52-29.62,44.31-44.41
		c3.56-3.56,7.81-4.63,12.52-3.08c4.63,1.52,7.3,4.95,7.99,9.75c0.62,4.31-1.13,7.78-4.15,10.77c-7.93,7.85-15.83,15.74-23.73,23.62
		c-0.74,0.74-1.43,1.53-2.7,2.89c1.86,0,2.99,0,4.12,0c24.6,0,49.19-0.04,73.79,0.02c8.92,0.02,14.74,8.48,11.29,16.38
		c-2.23,5.1-6.36,7.3-11.94,7.28c-24.27-0.07-48.54-0.03-72.81-0.03c-1.18,0-2.36,0-4.36,0c1.16,1.29,1.86,2.14,2.63,2.91
		c7.9,7.88,15.79,15.77,23.73,23.62c3.02,2.99,4.78,6.46,4.14,10.77c-0.71,4.8-3.41,8.21-8.02,9.74c-4.59,1.53-8.81,0.57-12.27-2.88
		c-15.8-15.76-31.61-31.52-47.3-47.39c-1.61-1.62-2.47-3.98-3.68-5.99C139.47,396.87,139.47,395.13,139.47,393.4z"/>
	<path class="st1" d="M472.53,398.6c-2.13,2.94-3.92,6.21-6.43,8.76c-14.45,14.67-29.09,29.16-43.61,43.76
		c-2.82,2.84-6,4.66-10.07,4.37c-5-0.36-8.58-2.93-10.43-7.58c-1.92-4.82-0.82-9.22,2.77-12.85c8.01-8.09,16.09-16.09,24.2-24.08
		c0.82-0.81,2.02-1.24,3.04-1.85c-0.28-0.44-0.57-0.87-0.85-1.31c-1.13,0-2.26,0-3.38,0c-24.6,0-49.21,0.04-73.81-0.02
		c-9.09-0.02-14.87-8.69-11.17-16.67c2.29-4.94,6.36-7.01,11.79-7c24.28,0.07,48.56,0.03,72.83,0.03c1.18,0,2.37,0,4.36,0
		c-1.06-1.2-1.67-1.96-2.35-2.64c-8.21-8.19-16.48-16.33-24.63-24.57c-4.07-4.12-4.78-9.59-2.14-14.34
		c2.56-4.61,7.72-7.11,12.96-5.76c2.2,0.57,4.49,1.81,6.1,3.4c15.73,15.54,31.37,31.17,46.91,46.9c1.68,1.7,2.62,4.14,3.9,6.23
		C472.53,395.13,472.53,396.87,472.53,398.6z"/>
	<path class="st1" d="M317.84,396.21c0,35.12-0.03,70.24,0.04,105.36c0.01,5.07-1.48,9.17-5.97,11.8c-7.59,4.44-17.15-0.7-17.7-9.46
		c-0.05-0.86-0.05-1.73-0.05-2.6c0-70.24,0-140.49,0-210.73c0-7.27,3.05-11.68,9.08-13.21c6.86-1.75,13.89,3.18,14.51,10.22
		c0.12,1.4,0.09,2.82,0.09,4.22C317.85,326.62,317.84,361.41,317.84,396.21z"/>
</g>
</svg>
