<svg id="Layer_1" data-name="Layer 1" xmlns="http://www.w3.org/2000/svg" viewBox="0 0 341.91 135.21"><defs><style>.cls-1{fill:#0080c8;}.cls-1,.cls-2{fill-rule:evenodd;}.cls-2{fill:#1a1a18;}</style></defs><title>NIUA logo</title><polygon class="cls-1" points="66.79 26.62 120.07 93.41 66.98 93.48 66.79 26.62"/><path class="cls-1" d="M303.3,403.67h45.57v48.62c.3,9.85-8.54,17.87-21.33,18.24-12.52.36-23.66-7.32-24.24-18.24Z" transform="translate(-136.06 -377.05)"/><polygon class="cls-1" points="244.21 26.69 273.21 93.48 216.87 93.48 244.21 26.69"/><polygon class="cls-1" points="126.83 26.62 157.64 26.62 158.09 93.48 127.28 93.48 126.83 26.62"/><path class="cls-1" d="M294.08,397.59H263v-8.07c-.21-6.72,6.27-12.21,15-12.46,8.55-.24,15.72,5,16.11,12.46Z" transform="translate(-136.06 -377.05)"/><path class="cls-2" d="M469.33,507.16l2.8-.25v.15a3.53,3.53,0,0,0,.38,1.84,1.3,1.3,0,0,0,2.11.16,1.85,1.85,0,0,0,.4-1.24,2.92,2.92,0,0,0-.52-1.56,14.79,14.79,0,0,0-2-2.28,12,12,0,0,1-2.32-2.9,5.47,5.47,0,0,1-.5-2.41,3.75,3.75,0,0,1,4.15-4.12,3.81,3.81,0,0,1,2.94,1.18,5.11,5.11,0,0,1,1.19,3.28l-2.77.22a3.49,3.49,0,0,0-.37-1.67,1.06,1.06,0,0,0-1-.53,1.23,1.23,0,0,0-1,.35,1.46,1.46,0,0,0-.34,1.05c0,.87.65,1.95,2,3.22l.1.11a13.87,13.87,0,0,1,2.71,3.19,5.67,5.67,0,0,1,.69,2.75,4.43,4.43,0,0,1-1.18,3.21,4.63,4.63,0,0,1-6.3,0,5.64,5.64,0,0,1-1.16-3.72m-7.52,4.69V494.8h2.95v2.26a4.92,4.92,0,0,1,1.52-1.86,4.2,4.2,0,0,1,2.15-.65l0,3.42a4.88,4.88,0,0,0-.62-.12c-.23,0-.5,0-.82,0a1.8,1.8,0,0,0-1.58.62,4.45,4.45,0,0,0-.45,2.41v11Zm-6.6,0V494.8h3.13v17.05Zm0-19.75v-3.21h3.13v3.21Zm-6.48,11a7.75,7.75,0,0,0-2.6,1.87,3.55,3.55,0,0,0-.83,2.29,2.3,2.3,0,0,0,.39,1.4,1.2,1.2,0,0,0,1,.53,1.76,1.76,0,0,0,1-.34,3.87,3.87,0,0,0,1-1Zm.38,8.79-.32-1.72a4.92,4.92,0,0,1-1.5,1.43,3.54,3.54,0,0,1-1.77.48,3,3,0,0,1-2.45-1.08,4.37,4.37,0,0,1-.92-2.92,6.36,6.36,0,0,1,1.56-4.27,14.19,14.19,0,0,1,5-3.38v-.93a3,3,0,0,0-.38-1.71,1.32,1.32,0,0,0-1.18-.54,1.53,1.53,0,0,0-1.27.6,2.64,2.64,0,0,0-.5,1.65h-3a5.23,5.23,0,0,1,1.48-3.62,5,5,0,0,1,3.62-1.29,4,4,0,0,1,3.38,1.34,7.31,7.31,0,0,1,1,4.41v7.83c0,.78,0,1.48.07,2.09a11,11,0,0,0,.25,1.63Zm-13.49,0V497.43h-1.87V494.8h1.87v-2.16a4.59,4.59,0,0,1,.78-3.07,3.59,3.59,0,0,1,2.77-.87h1.66v2.58h-.69a1.32,1.32,0,0,0-1.08.35,2.48,2.48,0,0,0-.29,1.43v1.74h2v2.63h-2v14.42Zm-8.22,0V497.43h-1.87V494.8h1.87v-2.16a4.59,4.59,0,0,1,.78-3.07,3.59,3.59,0,0,1,2.77-.87h1.67v2.58h-.7a1.32,1.32,0,0,0-1.08.35,2.48,2.48,0,0,0-.29,1.43v1.74h2v2.63h-2v14.42Zm-14.74,0,3.37-23h4.41l3.52,23h-3.45l-.58-4.63h-3.39l-.55,4.63Zm4.19-7.69h2.76l-1.26-13.33h-.17Zm-22,7.69V494.8h3v2.09a8.69,8.69,0,0,1,1.82-1.76,3.12,3.12,0,0,1,1.69-.58,2.36,2.36,0,0,1,2.24,1.15,8.87,8.87,0,0,1,.66,4.09v12.06h-3.18V499.66a3.41,3.41,0,0,0-.3-1.67,1,1,0,0,0-1-.5,1.64,1.64,0,0,0-.89.33,3.42,3.42,0,0,0-.89.89v13.14Zm-6.39-8.79a7.7,7.7,0,0,0-2.59,1.87,3.49,3.49,0,0,0-.83,2.29,2.3,2.3,0,0,0,.38,1.4,1.22,1.22,0,0,0,1,.53,1.8,1.8,0,0,0,1-.34,4,4,0,0,0,1-1Zm.39,8.79-.33-1.72a4.71,4.71,0,0,1-1.5,1.43,3.51,3.51,0,0,1-1.77.48A3.05,3.05,0,0,1,382.8,511a4.36,4.36,0,0,1-.91-2.92,6.4,6.4,0,0,1,1.55-4.27,14.38,14.38,0,0,1,5-3.38v-.93a3,3,0,0,0-.37-1.71,1.33,1.33,0,0,0-1.18-.54,1.55,1.55,0,0,0-1.28.6,2.77,2.77,0,0,0-.5,1.65h-3a5.32,5.32,0,0,1,1.48-3.62,5,5,0,0,1,3.62-1.29,4,4,0,0,1,3.39,1.34,7.32,7.32,0,0,1,1,4.41v7.83c0,.78,0,1.48.08,2.09a9.84,9.84,0,0,0,.25,1.63Zm-18.61-23h3.16v7.44a5.57,5.57,0,0,1,1.44-1.35,3,3,0,0,1,1.53-.43,2.62,2.62,0,0,1,2.38,1.28,7.66,7.66,0,0,1,.79,3.93v6.94a8.74,8.74,0,0,1-.74,4.11,2.48,2.48,0,0,1-2.31,1.32,3.1,3.1,0,0,1-1.6-.45,5.9,5.9,0,0,1-1.49-1.35v1.52h-3.16Zm3.16,9.41v10a4.42,4.42,0,0,0,.9.69,1.64,1.64,0,0,0,.8.22,1,1,0,0,0,1-.67,8.62,8.62,0,0,0,.27-2.69V500.3a5.29,5.29,0,0,0-.32-2.17,1.05,1.05,0,0,0-1-.64,1.61,1.61,0,0,0-.75.21A4.2,4.2,0,0,0,373.4,498.3Zm-11.61,13.55V494.8h2.95v2.26a4.92,4.92,0,0,1,1.52-1.86,4.17,4.17,0,0,1,2.15-.65V498a4.55,4.55,0,0,0-.62-.12c-.22,0-.5,0-.82,0a1.81,1.81,0,0,0-1.58.62,4.45,4.45,0,0,0-.45,2.41v11Zm-14.2-7.18V488.89H351V505.6a6,6,0,0,0,.45,2.71,1.52,1.52,0,0,0,1.45.81,1.55,1.55,0,0,0,1.46-.81,6,6,0,0,0,.45-2.71V488.89h3.36v15.78q0,4.14-1.21,5.87a5.65,5.65,0,0,1-8.14,0C348,509.38,347.59,507.43,347.59,504.67Zm-13.91,7.18V497.43h-1.87V494.8h1.87v-2.16a4.59,4.59,0,0,1,.78-3.07,3.59,3.59,0,0,1,2.77-.87h1.66v2.58h-.69a1.32,1.32,0,0,0-1.08.35,2.48,2.48,0,0,0-.29,1.43v1.74h2v2.63h-2v14.42Zm-7.24-12.29a3.08,3.08,0,0,0-.39-1.76,1.39,1.39,0,0,0-1.22-.55,1.4,1.4,0,0,0-1.24.55,3.08,3.08,0,0,0-.39,1.76v7.57a3.18,3.18,0,0,0,.39,1.77,1.63,1.63,0,0,0,2.46,0,3.18,3.18,0,0,0,.39-1.77Zm3.18,1.05v5.49a7.34,7.34,0,0,1-1.17,4.59,5.22,5.22,0,0,1-7.26,0A7.4,7.4,0,0,1,320,506.1v-5.49a7.39,7.39,0,0,1,1.17-4.58,5.18,5.18,0,0,1,7.25,0A7.32,7.32,0,0,1,329.62,500.61ZM311,505.91v1a5.49,5.49,0,0,1-1.27,3.87,4.58,4.58,0,0,1-3.56,1.38,4.15,4.15,0,0,1-3.49-1.5,7.5,7.5,0,0,1-1.15-4.56v-5.49a7.26,7.26,0,0,1,1.18-4.58,4.38,4.38,0,0,1,3.66-1.48,4.16,4.16,0,0,1,3.62,1.68,8.88,8.88,0,0,1,1.2,5.11v2.57h-6.48v3.22a3.18,3.18,0,0,0,.39,1.77,1.41,1.41,0,0,0,1.24.56,1.38,1.38,0,0,0,1.22-.56,3.18,3.18,0,0,0,.39-1.77v-1.22Zm-6.29-6.35v1.69h3.24v-1.69a3.08,3.08,0,0,0-.39-1.76,1.38,1.38,0,0,0-1.22-.55,1.4,1.4,0,0,0-1.24.55A3.08,3.08,0,0,0,304.66,499.56Zm-10.73,7.12v-9.22H292.1V494.8h1.83v-4.58h3.18v4.58h2.26v2.66h-2.26v9.4a4.5,4.5,0,0,0,.28,2,1.1,1.1,0,0,0,1,.45,8.16,8.16,0,0,0,.85-.05h.17v2.57a6.48,6.48,0,0,1-.87.21,5.14,5.14,0,0,1-.88.07,3.4,3.4,0,0,1-2.95-1.12C294.2,510.24,293.93,508.8,293.93,506.68ZM290,494.8v17.05h-2.94v-2.09a7.86,7.86,0,0,1-1.79,1.68,3.32,3.32,0,0,1-1.73.56,2.38,2.38,0,0,1-2.25-1.1,8.6,8.6,0,0,1-.65-4V494.8h3.18V507a3.54,3.54,0,0,0,.29,1.66,1,1,0,0,0,1,.49,1.62,1.62,0,0,0,.89-.31,3.8,3.8,0,0,0,.89-.9V494.8ZM273.1,506.68v-9.22h-1.83V494.8h1.83v-4.58h3.18v4.58h2.26v2.66h-2.26v9.4a4.46,4.46,0,0,0,.29,2,1.09,1.09,0,0,0,1,.45,8.31,8.31,0,0,0,.85-.05h.17v2.57a6.87,6.87,0,0,1-.87.21,5.14,5.14,0,0,1-.88.07,3.4,3.4,0,0,1-2.95-1.12C273.37,510.24,273.1,508.8,273.1,506.68Zm-7.1,5.17V494.8h3.14v17.05Zm0-19.75v-3.21h3.14v3.21Zm-7.85,14.58v-9.22h-1.83V494.8h1.83v-4.58h3.19v4.58h2.25v2.66h-2.25v9.4a4.5,4.5,0,0,0,.28,2,1.09,1.09,0,0,0,1,.45,8.31,8.31,0,0,0,.85-.05h.17v2.57a6.87,6.87,0,0,1-.87.21,5.14,5.14,0,0,1-.88.07,3.4,3.4,0,0,1-3-1.12C258.42,510.24,258.15,508.8,258.15,506.68Zm-11.48.48,2.79-.25v.15a3.52,3.52,0,0,0,.39,1.84,1.23,1.23,0,0,0,1.11.63,1.26,1.26,0,0,0,1-.47,1.9,1.9,0,0,0,.39-1.24,3,3,0,0,0-.51-1.56,15.58,15.58,0,0,0-2-2.28,12.29,12.29,0,0,1-2.32-2.9,5.61,5.61,0,0,1-.5-2.41,4.1,4.1,0,0,1,1.08-3.05,4.15,4.15,0,0,1,3.08-1.07,3.78,3.78,0,0,1,2.93,1.18,5.06,5.06,0,0,1,1.19,3.28l-2.76.22a3.61,3.61,0,0,0-.37-1.67,1.08,1.08,0,0,0-1-.53,1.24,1.24,0,0,0-1,.35,1.5,1.5,0,0,0-.33,1.05c0,.87.65,1.95,2,3.22l.1.11a13.87,13.87,0,0,1,2.71,3.19,5.67,5.67,0,0,1,.69,2.75,4.43,4.43,0,0,1-1.18,3.21,4.07,4.07,0,0,1-3.07,1.22,4.11,4.11,0,0,1-3.23-1.25A5.64,5.64,0,0,1,246.67,507.16ZM235,511.85V494.8h3v2.09a8.71,8.71,0,0,1,1.83-1.76,3.07,3.07,0,0,1,1.69-.58,2.37,2.37,0,0,1,2.24,1.15,8.87,8.87,0,0,1,.66,4.09v12.06h-3.18V499.66a3.41,3.41,0,0,0-.3-1.67,1,1,0,0,0-1-.5,1.69,1.69,0,0,0-.9.33,3.55,3.55,0,0,0-.88.89v13.14Zm-3.62,0H228v-23h3.4Zm-16.58,0v-23H218v23Zm-6.48-8.79a7.8,7.8,0,0,0-2.59,1.87,3.49,3.49,0,0,0-.83,2.29,2.3,2.3,0,0,0,.38,1.4,1.22,1.22,0,0,0,1,.53,1.8,1.8,0,0,0,1-.34,3.85,3.85,0,0,0,1-1Zm.39,8.79-.33-1.72a4.71,4.71,0,0,1-1.5,1.43,3.51,3.51,0,0,1-1.77.48,3.05,3.05,0,0,1-2.45-1.08,4.42,4.42,0,0,1-.91-2.92,6.4,6.4,0,0,1,1.55-4.27,14.38,14.38,0,0,1,5-3.38v-.93a3,3,0,0,0-.37-1.71,1.33,1.33,0,0,0-1.18-.54,1.56,1.56,0,0,0-1.28.6,2.77,2.77,0,0,0-.5,1.65h-3a5.32,5.32,0,0,1,1.48-3.62,5,5,0,0,1,3.62-1.29,4,4,0,0,1,3.39,1.34,7.32,7.32,0,0,1,1,4.41v7.83c0,.78,0,1.48.08,2.09a9.84,9.84,0,0,0,.25,1.63Zm-18.73,0V494.8h3v2.09a8.94,8.94,0,0,1,1.82-1.76,3.12,3.12,0,0,1,1.69-.58,2.37,2.37,0,0,1,2.25,1.15,8.9,8.9,0,0,1,.65,4.09v12.06h-3.18V499.66a3.56,3.56,0,0,0-.29-1.67,1.05,1.05,0,0,0-1-.5,1.66,1.66,0,0,0-.89.33,3.42,3.42,0,0,0-.89.89v13.14Zm-6.36-12.29a3.08,3.08,0,0,0-.39-1.76,1.39,1.39,0,0,0-1.22-.55,1.4,1.4,0,0,0-1.24.55,3.08,3.08,0,0,0-.39,1.76v7.57a3.18,3.18,0,0,0,.39,1.77,1.63,1.63,0,0,0,2.46,0,3.18,3.18,0,0,0,.39-1.77Zm3.18,1.05v5.49a7.34,7.34,0,0,1-1.17,4.59,5.22,5.22,0,0,1-7.26,0,7.4,7.4,0,0,1-1.17-4.59v-5.49a7.39,7.39,0,0,1,1.17-4.58,5.18,5.18,0,0,1,7.25,0A7.32,7.32,0,0,1,186.82,500.61Zm-16,11.24V494.8H174v17.05Zm0-19.75v-3.21H174v3.21ZM163,506.68v-9.22h-1.83V494.8H163v-4.58h3.18v4.58h2.26v2.66h-2.26v9.4a4.66,4.66,0,0,0,.28,2,1.11,1.11,0,0,0,1,.45,8.32,8.32,0,0,0,.86-.05h.17v2.57a7.31,7.31,0,0,1-.87.21,5.18,5.18,0,0,1-.89.07,3.39,3.39,0,0,1-2.94-1.12C163.24,510.24,163,508.8,163,506.68Zm-6.88-3.62a7.75,7.75,0,0,0-2.6,1.87,3.55,3.55,0,0,0-.83,2.29,2.3,2.3,0,0,0,.39,1.4,1.2,1.2,0,0,0,1,.53,1.75,1.75,0,0,0,1-.34,3.87,3.87,0,0,0,1-1Zm.38,8.79-.32-1.72a4.81,4.81,0,0,1-1.5,1.43,3.51,3.51,0,0,1-1.77.48,3,3,0,0,1-2.45-1.08,4.37,4.37,0,0,1-.92-2.92,6.36,6.36,0,0,1,1.56-4.27,14.28,14.28,0,0,1,5-3.38v-.93a3,3,0,0,0-.37-1.71,1.33,1.33,0,0,0-1.18-.54,1.53,1.53,0,0,0-1.28.6,2.64,2.64,0,0,0-.5,1.65h-3a5.23,5.23,0,0,1,1.48-3.62,5,5,0,0,1,3.62-1.29,4,4,0,0,1,3.39,1.34,7.39,7.39,0,0,1,1,4.41v7.83c0,.78,0,1.48.08,2.09a9.84,9.84,0,0,0,.25,1.63Zm-20.41,0v-23h3.27l5.15,17.72c-.28-2.65-.49-5.32-.63-8s-.21-5.35-.21-8v-1.69h3.05v23h-2.85l-5.63-19.54c.27,3.13.48,6.31.62,9.57s.23,6.57.26,10Z" transform="translate(-136.06 -377.05)"/></svg>