<?xml version="1.0" encoding="utf-8"?>
<!-- Generator: Adobe Illustrator 25.0.0, SVG Export Plug-In . SVG Version: 6.00 Build 0)  -->
<svg version="1.1" id="Layer_1" xmlns="http://www.w3.org/2000/svg" xmlns:xlink="http://www.w3.org/1999/xlink" x="0px" y="0px"
	 viewBox="0 0 500 500" style="enable-background:new 0 0 500 500;" xml:space="preserve">
<style type="text/css">
	.st0{fill:#FFFFFF;}
	.st1{fill:#3EB249;}
	.st2{fill:#F68633;}
	.st3{fill:#3EB149;}
	.st4{fill:#3A3A3A;}
	.st5{fill:#747475;}
</style>
<g>
	<g>
		<path class="st4" d="M54.98,396.19c0-2.05-0.77-3.72-2.3-5.01c-1.54-1.29-3.46-2.46-5.78-3.52c-2.32-1.06-4.84-2.15-7.55-3.28
			c-2.71-1.12-5.23-2.51-7.55-4.15c-2.32-1.64-4.25-3.68-5.78-6.12c-1.54-2.44-2.3-5.56-2.3-9.35c0-3.28,0.55-6.12,1.67-8.53
			c1.11-2.41,2.69-4.42,4.75-6.03c2.06-1.61,4.49-2.8,7.3-3.57s5.94-1.16,9.41-1.16c3.98,0,7.74,0.34,11.27,1.01
			c3.53,0.67,6.43,1.65,8.72,2.94l-4.21,11.09c-1.44-0.9-3.59-1.72-6.47-2.46c-2.87-0.74-5.98-1.11-9.31-1.11
			c-3.14,0-5.53,0.61-7.2,1.83c-1.67,1.22-2.5,2.86-2.5,4.92c0,1.93,0.77,3.53,2.3,4.82c1.53,1.29,3.46,2.48,5.78,3.57
			c2.32,1.09,4.83,2.22,7.54,3.37s5.23,2.56,7.55,4.19c2.32,1.64,4.25,3.67,5.78,6.07c1.53,2.41,2.3,5.42,2.3,9.01
			c0,3.6-0.6,6.7-1.81,9.3c-1.21,2.61-2.91,4.77-5.1,6.51c-2.19,1.73-4.83,3.02-7.93,3.86c-3.1,0.83-6.52,1.25-10.24,1.25
			c-4.9,0-9.21-0.45-12.93-1.35c-3.72-0.9-6.47-1.8-8.23-2.7l4.31-11.28c0.72,0.39,1.65,0.8,2.79,1.25
			c1.14,0.45,2.43,0.87,3.87,1.25c1.43,0.39,2.95,0.71,4.55,0.97c1.6,0.26,3.25,0.39,4.95,0.39c3.98,0,7.04-0.66,9.16-1.98
			C53.91,400.9,54.98,398.89,54.98,396.19z"/>
		<path class="st4" d="M107.89,414.31v-26.22c0-4.44-0.42-7.58-1.27-9.45c-0.85-1.86-2.61-2.79-5.29-2.79
			c-2.22,0-4.02,0.59-5.39,1.78s-2.42,2.71-3.14,4.58v32.1H80.06v-48.21h9.89l1.47,6.37h0.39c1.5-2.06,3.41-3.86,5.73-5.4
			c2.32-1.54,5.31-2.31,8.96-2.31c3.14,0,5.7,0.63,7.69,1.88c1.99,1.25,3.54,3.36,4.65,6.31c1.5-2.51,3.43-4.5,5.78-5.98
			c2.35-1.48,5.19-2.22,8.52-2.22c2.74,0,5.08,0.32,7.01,0.96c1.93,0.64,3.49,1.75,4.7,3.33c1.21,1.58,2.11,3.68,2.7,6.31
			c0.59,2.63,0.88,5.98,0.88,10.03v28.92h-12.74v-27.09c0-3.79-0.41-6.64-1.22-8.53c-0.82-1.9-2.63-2.84-5.44-2.84
			c-2.29,0-4.1,0.61-5.44,1.83c-1.34,1.22-2.34,2.89-2.99,5.01v31.62H107.89z"/>
		<path class="st4" d="M161.68,368.9c2.61-1.16,5.71-2.07,9.31-2.75c3.59-0.68,7.35-1.01,11.27-1.01c3.39,0,6.24,0.4,8.52,1.2
			c2.28,0.8,4.1,1.95,5.44,3.42s2.28,3.24,2.84,5.3c0.55,2.06,0.83,4.37,0.83,6.94c0,2.83-0.1,5.67-0.29,8.53
			c-0.19,2.86-0.31,5.67-0.34,8.43c-0.04,2.76,0.05,5.45,0.24,8.05c0.2,2.6,0.69,5.06,1.47,7.37h-10.39l-2.05-6.65h-0.49
			c-1.31,1.99-3.12,3.71-5.44,5.16c-2.32,1.45-5.31,2.17-8.96,2.17c-2.29,0-4.35-0.34-6.17-1.01s-3.39-1.64-4.7-2.89
			c-1.31-1.25-2.32-2.73-3.04-4.44c-0.72-1.7-1.08-3.62-1.08-5.73c0-2.96,0.67-5.45,2.01-7.47c1.34-2.03,3.27-3.66,5.78-4.92
			c2.51-1.25,5.52-2.12,9.01-2.6c3.49-0.48,7.4-0.63,11.71-0.44c0.46-3.6,0.19-6.19-0.79-7.76c-0.98-1.58-3.17-2.36-6.56-2.36
			c-2.55,0-5.24,0.26-8.08,0.77s-5.18,1.19-7,2.02L161.68,368.9z M177.84,404.77c2.55,0,4.57-0.56,6.07-1.69
			c1.5-1.12,2.61-2.33,3.33-3.62v-6.27c-2.03-0.19-3.97-0.22-5.83-0.09c-1.86,0.13-3.51,0.42-4.95,0.87
			c-1.44,0.45-2.58,1.1-3.43,1.93c-0.85,0.84-1.27,1.9-1.27,3.18c0,1.8,0.54,3.2,1.62,4.19
			C174.46,404.27,175.95,404.77,177.84,404.77z"/>
		<path class="st4" d="M240.64,377.87c-2.03-0.71-3.85-1.06-5.49-1.06c-2.29,0-4.2,0.59-5.73,1.78s-2.56,2.72-3.09,4.58v31.14H213.6
			v-48.21h9.89l1.47,6.37h0.39c1.11-2.38,2.61-4.21,4.51-5.5c1.89-1.28,4.12-1.93,6.66-1.93c1.7,0,3.63,0.35,5.78,1.06
			L240.64,377.87z"/>
		<path class="st4" d="M248.87,366.11h6.76v-9.06l12.74-3.57v12.63h11.95v10.6h-11.95v18.51c0,3.34,0.34,5.73,1.03,7.18
			c0.69,1.45,1.98,2.17,3.87,2.17c1.3,0,2.43-0.13,3.38-0.39c0.95-0.26,2.01-0.64,3.19-1.16l2.25,9.64
			c-1.76,0.84-3.82,1.54-6.17,2.12c-2.35,0.58-4.73,0.87-7.15,0.87c-4.51,0-7.82-1.14-9.94-3.42c-2.12-2.28-3.19-6.03-3.19-11.23
			v-24.3h-6.76V366.11z"/>
		<path class="st4" d="M364.49,411.55c-2.09,1.47-4.75,2.52-7.99,3.16c-3.23,0.64-6.55,0.95-9.94,0.95c-4.12,0-8.02-0.62-11.71-1.88
			c-3.69-1.25-6.94-3.28-9.75-6.07c-2.81-2.8-5.05-6.43-6.71-10.9c-1.67-4.47-2.5-9.88-2.5-16.25c0-6.62,0.93-12.16,2.79-16.63
			c1.86-4.47,4.28-8.06,7.25-10.8c2.97-2.73,6.29-4.69,9.94-5.88c3.66-1.19,7.32-1.78,10.97-1.78c3.92,0,7.23,0.26,9.94,0.77
			c2.71,0.52,4.95,1.12,6.71,1.83l-2.65,11.18c-1.5-0.71-3.28-1.22-5.34-1.54c-2.06-0.32-4.56-0.48-7.5-0.48
			c-5.42,0-9.78,1.9-13.08,5.7c-3.3,3.8-4.95,9.69-4.95,17.68c0,3.48,0.39,6.65,1.18,9.52c0.78,2.87,1.97,5.31,3.57,7.34
			c1.6,2.03,3.59,3.61,5.98,4.73s5.15,1.69,8.28,1.69c2.94,0,5.42-0.29,7.45-0.87c2.02-0.58,3.79-1.32,5.29-2.22L364.49,411.55z"/>
		<path class="st4" d="M394.37,366.11h6.76v-9.06l12.74-3.57v12.63h11.95v10.6h-11.95v18.51c0,3.34,0.34,5.73,1.03,7.18
			c0.69,1.45,1.98,2.17,3.87,2.17c1.3,0,2.43-0.13,3.38-0.39c0.95-0.26,2.01-0.64,3.19-1.16l2.25,9.64
			c-1.76,0.84-3.82,1.54-6.17,2.12c-2.35,0.58-4.73,0.87-7.15,0.87c-4.51,0-7.82-1.14-9.94-3.42c-2.12-2.28-3.19-6.03-3.19-11.23
			v-24.3h-6.76V366.11z"/>
		<path class="st4" d="M452.28,393.2l1.76,7.52h0.59l1.27-7.62l7.45-27h13.13l-14.89,43.48c-1.24,3.6-2.43,6.89-3.57,9.88
			c-1.15,2.99-2.4,5.58-3.77,7.76c-1.37,2.18-2.89,3.87-4.55,5.06c-1.67,1.19-3.64,1.78-5.93,1.78c-3.4,0-6.11-0.54-8.13-1.64
			l2.35-10.03c0.98,0.39,1.96,0.58,2.94,0.58c1.5,0,2.96-0.63,4.36-1.88c1.4-1.25,2.46-3.52,3.19-6.8l-20.48-48.21h15.29
			L452.28,393.2z"/>
	</g>
	<g>
		<path class="st4" d="M40.04,454.57l0.33-3.41H40.2l-1.25,3.11l-6,10.25h-0.82l-6.36-10.28l-1.19-3.08h-0.16l0.46,3.37v15.27h-2.57
			v-22.7h2.04l7.22,11.61l1.09,2.53h0.06l1.02-2.6l6.89-11.54h2.14v22.7h-2.74V454.57z"/>
		<path class="st4" d="M50.02,447.12h2.74v22.7h-2.74V447.12z"/>
		<path class="st4" d="M70.42,464.04c0-0.91-0.28-1.65-0.82-2.22c-0.55-0.57-1.24-1.08-2.06-1.52c-0.82-0.44-1.72-0.86-2.69-1.25
			c-0.97-0.39-1.86-0.86-2.68-1.41c-0.82-0.55-1.51-1.23-2.06-2.04c-0.55-0.81-0.82-1.84-0.82-3.1c0-1.77,0.63-3.18,1.88-4.22
			c1.25-1.04,3.03-1.55,5.34-1.55c1.34,0,2.56,0.1,3.66,0.29s1.95,0.44,2.57,0.74l-0.82,2.4c-0.51-0.24-1.25-0.48-2.23-0.7
			c-0.98-0.22-2.08-0.33-3.31-0.33c-1.45,0-2.54,0.32-3.26,0.95c-0.72,0.64-1.09,1.39-1.09,2.26c0,0.84,0.27,1.55,0.82,2.11
			c0.55,0.56,1.23,1.06,2.06,1.51c0.82,0.44,1.72,0.88,2.68,1.31c0.97,0.43,1.86,0.94,2.69,1.51c0.82,0.57,1.51,1.26,2.06,2.06
			c0.55,0.8,0.82,1.8,0.82,2.99c0,0.97-0.18,1.85-0.53,2.63c-0.35,0.78-0.87,1.45-1.55,2.01c-0.68,0.56-1.5,1-2.47,1.3
			c-0.97,0.3-2.06,0.45-3.29,0.45c-1.65,0-3.01-0.12-4.09-0.37c-1.07-0.25-1.91-0.52-2.5-0.83l0.92-2.4
			c0.51,0.27,1.25,0.54,2.24,0.8c0.99,0.26,2.1,0.39,3.33,0.39c0.73,0,1.41-0.07,2.04-0.21c0.64-0.14,1.19-0.37,1.65-0.68
			c0.46-0.31,0.83-0.71,1.1-1.18C70.28,465.25,70.42,464.69,70.42,464.04z"/>
		<path class="st4" d="M88.93,464.04c0-0.91-0.28-1.65-0.82-2.22c-0.55-0.57-1.24-1.08-2.06-1.52c-0.82-0.44-1.72-0.86-2.69-1.25
			c-0.97-0.39-1.86-0.86-2.68-1.41c-0.82-0.55-1.51-1.23-2.06-2.04c-0.55-0.81-0.82-1.84-0.82-3.1c0-1.77,0.63-3.18,1.88-4.22
			c1.25-1.04,3.03-1.55,5.34-1.55c1.34,0,2.56,0.1,3.66,0.29s1.95,0.44,2.57,0.74l-0.82,2.4c-0.51-0.24-1.25-0.48-2.23-0.7
			c-0.98-0.22-2.08-0.33-3.31-0.33c-1.45,0-2.54,0.32-3.26,0.95c-0.72,0.64-1.09,1.39-1.09,2.26c0,0.84,0.27,1.55,0.82,2.11
			c0.55,0.56,1.23,1.06,2.06,1.51c0.82,0.44,1.72,0.88,2.68,1.31c0.97,0.43,1.86,0.94,2.69,1.51c0.82,0.57,1.51,1.26,2.06,2.06
			c0.55,0.8,0.82,1.8,0.82,2.99c0,0.97-0.18,1.85-0.53,2.63c-0.35,0.78-0.87,1.45-1.55,2.01c-0.68,0.56-1.5,1-2.47,1.3
			c-0.97,0.3-2.06,0.45-3.29,0.45c-1.65,0-3.01-0.12-4.09-0.37c-1.07-0.25-1.91-0.52-2.5-0.83l0.92-2.4
			c0.51,0.27,1.25,0.54,2.24,0.8c0.99,0.26,2.1,0.39,3.33,0.39c0.73,0,1.41-0.07,2.04-0.21c0.64-0.14,1.19-0.37,1.65-0.68
			c0.46-0.31,0.83-0.71,1.1-1.18C88.8,465.25,88.93,464.69,88.93,464.04z"/>
		<path class="st4" d="M97.67,447.12h2.74v22.7h-2.74V447.12z"/>
		<path class="st4" d="M106.7,458.46c0-3.78,0.81-6.68,2.44-8.71c1.63-2.02,3.94-3.03,6.95-3.03c1.63,0,3.03,0.28,4.22,0.84
			c1.19,0.56,2.17,1.36,2.95,2.38c0.78,1.03,1.35,2.26,1.73,3.7c0.37,1.44,0.56,3.04,0.56,4.81c0,3.78-0.82,6.69-2.46,8.71
			c-1.64,2.02-3.97,3.03-7,3.03c-1.6,0-2.99-0.28-4.17-0.84c-1.18-0.56-2.16-1.36-2.94-2.38c-0.78-1.02-1.35-2.26-1.73-3.69
			C106.88,461.84,106.7,460.23,106.7,458.46z M109.59,458.46c0,1.25,0.13,2.44,0.38,3.57s0.64,2.11,1.17,2.97
			c0.53,0.85,1.2,1.53,2.03,2.04c0.82,0.51,1.8,0.76,2.91,0.76c2.04,0,3.65-0.76,4.81-2.28c1.17-1.53,1.75-3.87,1.75-7.05
			c0-1.23-0.13-2.41-0.38-3.55c-0.25-1.13-0.65-2.13-1.19-2.98c-0.54-0.85-1.22-1.53-2.04-2.04c-0.82-0.51-1.81-0.76-2.95-0.76
			c-2.02,0-3.61,0.76-4.76,2.28C110.17,452.94,109.59,455.29,109.59,458.46z"/>
		<path class="st4" d="M135.36,454.96l-1.78-3.27h-0.13l0.33,3.27v14.85h-2.57v-23.05h1.45l11.04,15.14l1.71,3.11h0.16l-0.36-3.11
			v-14.78h2.57v23.05h-1.45L135.36,454.96z"/>
		<path class="st4" d="M178.1,449.51h-7.18v20.3h-2.74v-20.3H161v-2.4h17.1V449.51z"/>
		<path class="st4" d="M182.51,447.34c0.83-0.15,1.8-0.27,2.88-0.36c1.09-0.09,2.08-0.13,2.98-0.13c1.01,0,1.97,0.11,2.88,0.32
			c0.91,0.21,1.71,0.57,2.41,1.07c0.69,0.5,1.25,1.15,1.66,1.95c0.42,0.8,0.63,1.77,0.63,2.92c0,1.77-0.49,3.21-1.48,4.31
			c-0.99,1.1-2.24,1.84-3.76,2.21l1.58,1.2l5.73,8.98h-3.19l-6.36-9.79l-3.23-0.49v10.28h-2.74V447.34z M188.44,449.19
			c-0.29,0-0.58,0-0.89,0c-0.31,0-0.6,0.01-0.89,0.03c-0.29,0.02-0.56,0.04-0.81,0.06c-0.25,0.02-0.46,0.05-0.61,0.1v8.36h2.57
			c1.51,0,2.77-0.37,3.75-1.1c0.99-0.74,1.48-1.88,1.48-3.44c0-1.17-0.41-2.13-1.22-2.89C191.02,449.57,189.89,449.19,188.44,449.19
			z"/>
		<path class="st4" d="M213.23,463.52h-8.46l-2.3,6.29h-2.74l8.73-23.05h1.25l8.76,23.05h-2.9L213.23,463.52z M205.66,461.19h6.76
			l-2.56-6.9l-0.82-3.44H209l-0.82,3.5L205.66,461.19z"/>
		<path class="st4" d="M226.73,454.96l-1.78-3.27h-0.13l0.33,3.27v14.85h-2.57v-23.05h1.45l11.04,15.14l1.71,3.11h0.16l-0.36-3.11
			v-14.78h2.57v23.05h-1.45L226.73,454.96z"/>
		<path class="st4" d="M256.19,464.04c0-0.91-0.27-1.65-0.82-2.22c-0.55-0.57-1.24-1.08-2.06-1.52c-0.82-0.44-1.72-0.86-2.68-1.25
			c-0.97-0.39-1.86-0.86-2.68-1.41c-0.82-0.55-1.51-1.23-2.06-2.04c-0.55-0.81-0.82-1.84-0.82-3.1c0-1.77,0.63-3.18,1.88-4.22
			c1.25-1.04,3.03-1.55,5.34-1.55c1.34,0,2.56,0.1,3.66,0.29c1.1,0.19,1.95,0.44,2.57,0.74l-0.82,2.4c-0.51-0.24-1.25-0.48-2.22-0.7
			c-0.98-0.22-2.08-0.33-3.31-0.33c-1.45,0-2.54,0.32-3.26,0.95c-0.73,0.64-1.09,1.39-1.09,2.26c0,0.84,0.28,1.55,0.82,2.11
			c0.55,0.56,1.24,1.06,2.06,1.51c0.82,0.44,1.72,0.88,2.68,1.31c0.97,0.43,1.86,0.94,2.68,1.51c0.82,0.57,1.51,1.26,2.06,2.06
			c0.55,0.8,0.82,1.8,0.82,2.99c0,0.97-0.17,1.85-0.53,2.63c-0.35,0.78-0.87,1.45-1.55,2.01c-0.68,0.56-1.5,1-2.47,1.3
			c-0.97,0.3-2.07,0.45-3.29,0.45c-1.65,0-3.01-0.12-4.09-0.37c-1.08-0.25-1.91-0.52-2.51-0.83l0.92-2.4
			c0.51,0.27,1.25,0.54,2.24,0.8c0.99,0.26,2.1,0.39,3.33,0.39c0.72,0,1.4-0.07,2.04-0.21c0.64-0.14,1.19-0.37,1.65-0.68
			c0.46-0.31,0.83-0.71,1.1-1.18C256.05,465.25,256.19,464.69,256.19,464.04z"/>
		<path class="st4" d="M264.3,447.12h12.55v2.4h-9.82v7.75h9.16v2.4h-9.16v10.15h-2.74V447.12z"/>
		<path class="st4" d="M281.4,458.46c0-3.78,0.81-6.68,2.44-8.71c1.63-2.02,3.94-3.03,6.95-3.03c1.63,0,3.03,0.28,4.22,0.84
			c1.19,0.56,2.17,1.36,2.95,2.38c0.78,1.03,1.35,2.26,1.73,3.7c0.37,1.44,0.56,3.04,0.56,4.81c0,3.78-0.82,6.69-2.46,8.71
			c-1.64,2.02-3.97,3.03-7,3.03c-1.6,0-2.99-0.28-4.17-0.84c-1.18-0.56-2.16-1.36-2.94-2.38c-0.78-1.02-1.35-2.26-1.73-3.69
			C281.58,461.84,281.4,460.23,281.4,458.46z M284.3,458.46c0,1.25,0.13,2.44,0.38,3.57c0.25,1.12,0.64,2.11,1.17,2.97
			c0.53,0.85,1.2,1.53,2.03,2.04c0.82,0.51,1.8,0.76,2.91,0.76c2.04,0,3.65-0.76,4.81-2.28c1.17-1.53,1.75-3.87,1.75-7.05
			c0-1.23-0.13-2.41-0.38-3.55c-0.25-1.13-0.65-2.13-1.19-2.98s-1.22-1.53-2.04-2.04c-0.82-0.51-1.81-0.76-2.95-0.76
			c-2.02,0-3.61,0.76-4.76,2.28C284.87,452.94,284.3,455.29,284.3,458.46z"/>
		<path class="st4" d="M305.91,447.34c0.83-0.15,1.8-0.27,2.88-0.36c1.09-0.09,2.08-0.13,2.98-0.13c1.01,0,1.97,0.11,2.88,0.32
			c0.91,0.21,1.71,0.57,2.41,1.07c0.69,0.5,1.25,1.15,1.66,1.95c0.42,0.8,0.63,1.77,0.63,2.92c0,1.77-0.49,3.21-1.48,4.31
			c-0.99,1.1-2.24,1.84-3.76,2.21l1.58,1.2l5.73,8.98h-3.19l-6.36-9.79l-3.23-0.49v10.28h-2.74V447.34z M311.84,449.19
			c-0.29,0-0.58,0-0.89,0c-0.31,0-0.6,0.01-0.89,0.03c-0.29,0.02-0.56,0.04-0.81,0.06c-0.25,0.02-0.46,0.05-0.61,0.1v8.36h2.57
			c1.51,0,2.77-0.37,3.75-1.1c0.99-0.74,1.48-1.88,1.48-3.44c0-1.17-0.41-2.13-1.22-2.89C314.42,449.57,313.29,449.19,311.84,449.19
			z"/>
		<path class="st4" d="M344.27,454.57l0.33-3.41h-0.16l-1.25,3.11l-6,10.25h-0.82L330,454.25l-1.19-3.08h-0.16l0.46,3.37v15.27
			h-2.57v-22.7h2.04l7.22,11.61l1.09,2.53h0.06l1.02-2.6l6.89-11.54H347v22.7h-2.74V454.57z"/>
		<path class="st4" d="M352.77,459.27h7.97v2.4h-7.97V459.27z"/>
		<path class="st4" d="M370.66,454.96l-1.78-3.27h-0.13l0.33,3.27v14.85h-2.57v-23.05h1.45l11.04,15.14l1.71,3.11h0.16l-0.36-3.11
			v-14.78h2.57v23.05h-1.45L370.66,454.96z"/>
		<path class="st4" d="M400.66,463.52h-8.46l-2.3,6.29h-2.74l8.73-23.05h1.25l8.76,23.05h-2.9L400.66,463.52z M393.08,461.19h6.76
			l-2.56-6.9l-0.82-3.44h-0.04l-0.82,3.5L393.08,461.19z"/>
		<path class="st4" d="M422.69,449.51h-7.18v20.3h-2.74v-20.3h-7.18v-2.4h17.1V449.51z"/>
		<path class="st4" d="M427.73,447.12h2.74v22.7h-2.74V447.12z"/>
		<path class="st4" d="M436.76,458.46c0-3.78,0.81-6.68,2.44-8.71c1.63-2.02,3.94-3.03,6.95-3.03c1.63,0,3.03,0.28,4.22,0.84
			c1.19,0.56,2.17,1.36,2.95,2.38c0.78,1.03,1.35,2.26,1.73,3.7c0.37,1.44,0.56,3.04,0.56,4.81c0,3.78-0.82,6.69-2.46,8.71
			c-1.64,2.02-3.97,3.03-7,3.03c-1.6,0-2.99-0.28-4.17-0.84c-1.18-0.56-2.16-1.36-2.94-2.38c-0.78-1.02-1.35-2.26-1.73-3.69
			C436.94,461.84,436.76,460.23,436.76,458.46z M439.66,458.46c0,1.25,0.13,2.44,0.38,3.57c0.25,1.12,0.64,2.11,1.17,2.97
			c0.53,0.85,1.2,1.53,2.03,2.04c0.82,0.51,1.8,0.76,2.91,0.76c2.04,0,3.65-0.76,4.81-2.28c1.17-1.53,1.75-3.87,1.75-7.05
			c0-1.23-0.13-2.41-0.38-3.55c-0.25-1.13-0.65-2.13-1.19-2.98s-1.22-1.53-2.04-2.04c-0.82-0.51-1.81-0.76-2.95-0.76
			c-2.02,0-3.61,0.76-4.76,2.28C440.23,452.94,439.66,455.29,439.66,458.46z"/>
		<path class="st4" d="M465.42,454.96l-1.78-3.27h-0.13l0.33,3.27v14.85h-2.57v-23.05h1.45l11.04,15.14l1.71,3.11h0.16l-0.36-3.11
			v-14.78h2.57v23.05h-1.45L465.42,454.96z"/>
	</g>
	<g>
		<g>
			<g>
				<rect x="240.93" y="58.14" class="st4" width="18.09" height="17.18"/>
			</g>
		</g>
	</g>
	<g>
		<g>
			<g>
				<rect x="214.51" y="29.8" class="st1" width="18.09" height="17.18"/>
			</g>
		</g>
	</g>
	<g>
		<g>
			<g>
				<rect x="267.85" y="29.8" class="st2" width="18.09" height="17.18"/>
			</g>
		</g>
	</g>
	<g>
		<path class="st4" d="M259.02,319.28h-18.09V302.1h18.09V319.28z M259.02,292.15h-18.09v-17.18h18.09V292.15z M259.02,265.02
			h-18.09v-17.18h18.09V265.02z M259.02,237.89h-18.09V220.7h18.09V237.89z M259.02,210.76h-18.09v-17.18h18.09V210.76z
			 M259.02,183.62h-18.09v-17.18h18.09V183.62z M259.02,156.49h-18.09v-17.18h18.09V156.49z M259.02,129.36h-18.09v-17.18h18.09
			V129.36z"/>
	</g>
	<g>
		<g>
			<path class="st4" d="M314.07,238.03h-18.09v-17.18h18.09V238.03z M314.07,210.9h-18.09v-17.18h18.09V210.9z M314.07,183.77
				h-18.09v-17.18h18.09V183.77z M314.07,156.64h-18.09v-17.18h18.09V156.64z"/>
		</g>
		<g>
			<path class="st4" d="M342.74,264.9h-18.09v-17.18h18.09V264.9z M342.74,237.77h-18.09v-17.18h18.09V237.77z M342.74,156.37
				h-18.09v-17.18h18.09V156.37z M342.74,129.24h-18.09v-17.18h18.09V129.24z"/>
		</g>
		<g>
			<path class="st4" d="M371.43,292.25h-18.09v-17.18h18.09V292.25z M371.43,265.12h-18.09v-17.18h18.09V265.12z M371.43,237.99
				h-18.09V220.8h18.09V237.99z M371.43,156.59h-18.09V139.4h18.09V156.59z M371.43,129.46h-18.09v-17.18h18.09V129.46z
				 M371.43,102.32h-18.09V85.14h18.09V102.32z"/>
		</g>
		<g>
			<path class="st4" d="M400,292.25h-18.09v-17.18H400V292.25z M400,265.12h-18.09v-17.18H400V265.12z M400,237.99h-18.09V220.8H400
				V237.99z M400,156.59h-18.09V139.4H400V156.59z M400,129.46h-18.09v-17.18H400V129.46z M400,102.32h-18.09V85.14H400V102.32z"/>
		</g>
		<g>
			<g>
				<rect x="353.35" y="166.54" class="st2" width="18.09" height="17.18"/>
			</g>
			<g>
				<rect x="324.65" y="166.32" class="st2" width="18.09" height="17.18"/>
			</g>
		</g>
		<g>
			<g>
				<rect x="353.35" y="193.67" class="st3" width="18.09" height="17.18"/>
			</g>
			<g>
				<rect x="324.65" y="193.45" class="st3" width="18.09" height="17.18"/>
			</g>
		</g>
	</g>
	<g>
		<g>
			<path class="st4" d="M186.8,220.85h18.09v17.18H186.8V220.85z M186.8,193.72h18.09v17.18H186.8V193.72z M186.8,166.58h18.09
				v17.18H186.8V166.58z M186.8,139.45h18.09v17.18H186.8V139.45z"/>
		</g>
		<g>
			<path class="st4" d="M158.13,247.71h18.09v17.18h-18.09V247.71z M158.13,220.58h18.09v17.18h-18.09V220.58z M158.13,139.18h18.09
				v17.18h-18.09V139.18z M158.13,112.05h18.09v17.18h-18.09V112.05z"/>
		</g>
		<g>
			<path class="st4" d="M129.44,275.07h18.09v17.18h-18.09V275.07z M129.44,247.93h18.09v17.18h-18.09V247.93z M129.44,220.8h18.09
				v17.18h-18.09V220.8z M129.44,139.4h18.09v17.18h-18.09V139.4z M129.44,112.27h18.09v17.18h-18.09V112.27z M129.44,85.14h18.09
				v17.18h-18.09V85.14z"/>
		</g>
		<g>
			<path class="st4" d="M100.87,275.07h18.09v17.18h-18.09V275.07z M100.87,247.93h18.09v17.18h-18.09V247.93z M100.87,220.8h18.09
				v17.18h-18.09V220.8z M100.87,139.4h18.09v17.18h-18.09V139.4z M100.87,112.27h18.09v17.18h-18.09V112.27z M100.87,85.14h18.09
				v17.18h-18.09V85.14z"/>
		</g>
		<g>
			<g>
				<rect x="129.44" y="166.54" class="st2" width="18.09" height="17.18"/>
			</g>
			<g>
				<rect x="158.13" y="166.32" class="st2" width="18.09" height="17.18"/>
			</g>
		</g>
		<g>
			<g>
				<rect x="129.44" y="193.67" class="st3" width="18.09" height="17.18"/>
			</g>
			<g>
				<rect x="158.13" y="193.45" class="st3" width="18.09" height="17.18"/>
			</g>
		</g>
	</g>
	<g>
		<g>
			<rect x="372.34" y="347.21" class="st2" width="11.97" height="11.38"/>
		</g>
		<g>
			<rect x="372.34" y="365.62" class="st4" width="11.97" height="11.38"/>
		</g>
		<g>
			<rect x="372.34" y="384.03" class="st4" width="11.97" height="11.38"/>
		</g>
		<g>
			<rect x="372.34" y="402.94" class="st4" width="11.97" height="11.38"/>
		</g>
	</g>
</g>
</svg>
